<?xml version="1.0" standalone="no"?>
<!DOCTYPE svg PUBLIC "-//W3C//DTD SVG 20010904//EN"
 "http://www.w3.org/TR/2001/REC-SVG-20010904/DTD/svg10.dtd">
<svg version="1.0" xmlns="http://www.w3.org/2000/svg"
 width="246.000000pt" height="246.000000pt" viewBox="0 0 246.000000 246.000000"
 preserveAspectRatio="xMidYMid meet">
<metadata>
Created by potrace 1.14, written by Peter Selinger 2001-2017
</metadata>
<g transform="translate(0.000000,246.000000) scale(0.100000,-0.100000)"
fill="#000000" stroke="none">
<path d="M1930 1974 c-63 -25 -138 -110 -190 -214 -63 -129 -153 -436 -174
-595 -2 -11 -6 -45 -10 -75 -4 -30 -9 -72 -12 -93 -5 -37 -37 -99 -95 -184
-97 -141 -209 -189 -238 -101 -13 41 -7 143 14 234 9 38 19 96 22 129 4 51 2
63 -15 78 -69 62 -138 -25 -158 -198 -5 -49 -18 -79 -71 -168 -70 -116 -123
-167 -174 -167 -41 0 -58 9 -75 43 -33 64 -11 266 37 342 46 73 36 135 -26
151 -36 9 -76 -17 -102 -66 -48 -91 -71 -119 -110 -129 -20 -6 -38 -9 -40 -7
-2 2 10 34 26 72 47 112 52 172 15 208 -25 26 -76 20 -107 -12 -53 -55 -114
-228 -104 -295 5 -39 -50 -192 -88 -242 -36 -47 -85 -67 -159 -66 -33 0 -67
-3 -75 -8 -23 -15 -25 -84 -3 -111 15 -19 28 -23 70 -23 119 0 249 106 334
273 32 61 34 63 75 66 23 2 55 10 70 17 l28 15 0 -117 c0 -105 2 -121 25 -166
37 -71 92 -99 183 -91 95 7 172 52 250 145 24 29 28 30 34 14 14 -38 47 -73
84 -87 48 -20 131 -13 187 16 42 21 124 94 175 156 24 29 28 31 33 15 49 -150
119 -211 234 -200 106 9 207 85 278 209 l29 50 75 3 c112 4 211 54 258 130 26
42 21 77 -13 92 -27 12 -44 5 -95 -38 -47 -42 -90 -61 -144 -66 l-48 -5 4 50
c4 52 -12 111 -35 135 -70 70 -181 36 -199 -60 -9 -53 16 -132 54 -172 l26
-28 -26 -39 c-103 -155 -203 -165 -254 -26 -10 30 -22 79 -25 111 -6 57 -6 57
37 98 81 76 165 178 245 298 118 176 164 299 169 446 2 88 0 102 -25 156 -16
33 -41 67 -56 77 -29 19 -98 30 -125 20z m61 -171 c16 -42 5 -178 -21 -252
-26 -73 -76 -171 -126 -246 -43 -66 -144 -188 -150 -182 -3 3 9 67 27 143 86
380 224 654 270 537z"/>
<path d="M1233 1546 c-73 -33 -115 -178 -65 -228 42 -42 129 -23 168 37 70
107 1 236 -103 191z"/>
</g>
</svg>
